<svg width="438" height="480" viewBox="0 0 438 480" fill="none" xmlns="http://www.w3.org/2000/svg">
<mask id="mask0_10766_1776" style="mask-type:alpha" maskUnits="userSpaceOnUse" x="-12" y="0" width="462" height="480">
<rect x="-11.0254" width="460.05" height="480" fill="#D9D9D9"/>
</mask>
<g mask="url(#mask0_10766_1776)">
<mask id="mask1_10766_1776" style="mask-type:alpha" maskUnits="userSpaceOnUse" x="16" y="18" width="406" height="445">
<path d="M416.149 145.572C414.882 134.57 413.376 123.784 411.656 113.286C409.565 100.545 407.151 88.2348 404.415 76.501C402.228 67.1308 399.838 58.1325 397.245 49.5661C395.895 45.1269 394.509 40.7837 393.051 36.5965C391.999 33.5611 389.478 31.3415 386.348 30.6456C365.21 26.3144 335.671 23.231 305.87 21.1794C305.428 21.1434 304.986 21.1194 304.544 21.0834C272.795 18.9598 240.903 18 218.677 18C196.452 18 164.56 18.9598 132.811 21.0954C132.464 21.1194 132.106 21.1434 131.759 21.1674C101.863 23.207 72.2048 26.3024 51.007 30.6456C47.8763 31.3295 45.355 33.5491 44.3035 36.5965C42.8457 40.7957 41.4596 45.1269 40.1094 49.5661C37.5164 58.1325 35.1266 67.1308 32.9399 76.501C30.2035 88.2348 27.7898 100.545 25.6987 113.286C23.9661 123.82 22.4725 134.654 21.1939 145.692C14.5024 203.749 14.1678 267.697 20.8235 325.706C22.1857 337.608 23.8466 349.27 25.8063 360.56C28.0169 373.253 30.5979 385.491 33.5732 397.153C36.0825 406.967 38.8547 416.361 41.9137 425.252C43.8375 430.855 45.8808 436.278 48.0317 441.461C49.0115 443.824 50.8994 445.636 53.3251 446.44C71.8104 452.607 101.803 456.662 133.253 459.157C133.647 459.193 134.042 459.217 134.448 459.253C163.663 461.533 194.002 462.469 217.482 462.493C217.877 462.493 218.283 462.493 218.677 462.493C219.072 462.493 219.478 462.493 219.872 462.493C243.388 462.457 273.763 461.521 303.014 459.241C303.373 459.217 303.731 459.181 304.102 459.157C335.552 456.662 365.544 452.607 384.029 446.44C386.455 445.636 388.343 443.824 389.323 441.461C391.474 436.278 393.517 430.855 395.441 425.252C398.5 416.361 401.284 406.967 403.781 397.153C406.757 385.491 409.35 373.253 411.548 360.56C413.508 349.27 415.157 337.62 416.531 325.73C423.199 267.673 422.864 203.665 416.149 145.572Z" fill="black" fill-opacity="0.6"/>
</mask>
<g mask="url(#mask1_10766_1776)">
<rect x="16" y="18" width="405.36" height="444.49" fill="black"/>
</g>
</g>
</svg>
