<?xml version="1.0" encoding="UTF-8"?>
<svg xmlns="http://www.w3.org/2000/svg" version="1.1" xmlns:xlink="http://www.w3.org/1999/xlink" viewBox="0 0 841.9 595.3">
  <!-- Generator: Adobe Illustrator 29.1.0, SVG Export Plug-In . SVG Version: 2.1.0 Build 142)  -->
  <defs>
    <style>
      .st0 {
        fill: #55a03e;
        mix-blend-mode: multiply;
      }

      .st1 {
        fill: none;
      }

      .st2 {
        isolation: isolate;
      }

      .st3 {
        fill: #498935;
      }

      .st4 {
        clip-path: url(#clippath);
      }
    </style>
    <clipPath id="clippath">
      <rect class="st1" x="-19" y="-3.7" width="879.9" height="602.6"/>
    </clipPath>
  </defs>
  <g class="st2">
    <g id="Layer_1">
      <rect class="st0" x="-19" y="-3.7" width="879.9" height="602.6"/>
      <g class="st4">
        <path class="st3" d="M421,306.1h0L395.7-3.7h-68.5l93.8,309.8ZM421,306.1h0L274.1-3.7h-68.5l215.4,309.8ZM421,306.1h0L135.7-3.7H11.9l409,309.8ZM421,306.1h0L-19,70.7v93l439.9,142.4ZM-19,245.4v82.8l439.9-22h0L-19,245.4ZM-19,398.5v82.6l439.9-174.9h0L-19,398.5ZM421,306.1h0L446.2-3.7h68.5l-93.8,309.8ZM421,306.1h0L567.8-3.7h68.5l-215.4,309.8ZM421,306.1h0L706.2-3.7h123.8l-409,309.8ZM421,306.1h0l439.9-235.4v93l-439.9,142.4ZM860.9,245.4v82.8l-439.9-22h0l439.9-60.8ZM860.9,398.5v82.6l-439.9-174.9h0l439.9,92.3Z"/>
      </g>
    </g>
  </g>
</svg>